<svg xmlns="http://www.w3.org/2000/svg" id="Layer_1" data-name="Layer 1" viewBox="0 0 51.6 46.4"><path d="M12.9,0l5.3,3.7c-1,1.5-2.2,3.4-3.6,6a52.4,52.4,0,0,0-3.3,8.7,26.7,26.7,0,0,0-1.1,9.2,4.9,4.9,0,0,1,1.8-.5h1.5A9.8,9.8,0,0,1,20,29.2c1.9,1.5,2.8,3.8,2.8,6.8A10.1,10.1,0,0,1,20,43.3a8.9,8.9,0,0,1-7.2,3c-4.2.1-7.4-1.2-9.6-4.2A17.7,17.7,0,0,1,0,31.3a37.2,37.2,0,0,1,1.5-9.9A57.9,57.9,0,0,1,5.9,10.5,54.9,54.9,0,0,1,12.9,0ZM41.7,0,47,3.7c-1,1.5-2.2,3.4-3.6,6a52.4,52.4,0,0,0-3.3,8.7A26.7,26.7,0,0,0,39,27.6a4.9,4.9,0,0,1,1.8-.5h1.5a9.8,9.8,0,0,1,6.5,2.2c1.9,1.5,2.8,3.8,2.8,6.8a10.1,10.1,0,0,1-2.8,7.3,8.9,8.9,0,0,1-7.2,3c-4.2.1-7.4-1.2-9.6-4.2a17.7,17.7,0,0,1-3.2-10.8,37.2,37.2,0,0,1,1.5-9.9,57.9,57.9,0,0,1,4.4-10.9A54.9,54.9,0,0,1,41.7,0Z" transform="translate(0 0)" fill="#2a7d2e"/></svg>